<svg xmlns="http://www.w3.org/2000/svg" viewBox="0 0 146.48 227.84"><defs><style>.cls-1{fill:#120f26;}.cls-2{fill:#e22b17;}.cls-3{fill:#ffda40;}</style></defs><g id="Layer_2" data-name="Layer 2"><g id="Layer_7" data-name="Layer 7"><polygon class="cls-1" points="130.2 97.65 130.2 113.92 130.2 130.2 146.48 130.2 146.48 113.92 146.48 97.65 130.2 97.65"/><rect class="cls-1" x="113.93" y="81.37" width="16.27" height="16.28"/><rect class="cls-1" x="97.65" y="65.1" width="16.28" height="16.27"/><rect class="cls-1" x="81.38" y="48.82" width="16.27" height="16.28"/><rect class="cls-1" x="65.1" y="32.55" width="16.28" height="16.27"/><rect class="cls-1" x="48.83" y="16.27" width="16.27" height="16.28"/><polygon class="cls-1" points="16.28 211.57 16.28 195.29 16.28 179.02 16.28 162.75 16.28 146.47 16.28 130.2 16.28 113.92 16.28 97.65 16.28 81.37 16.28 65.1 16.28 48.82 16.28 32.55 16.28 16.27 32.55 16.27 48.83 16.27 48.83 0 32.55 0 16.28 0 0 0 0 16.27 0 32.55 0 48.82 0 65.1 0 81.37 0 97.65 0 113.92 0 130.2 0 146.47 0 162.75 0 179.02 0 195.29 0 211.57 0 227.84 16.28 227.84 32.55 227.84 48.83 227.84 48.83 211.57 32.55 211.57 16.28 211.57"/><rect class="cls-1" x="48.83" y="195.29" width="16.27" height="16.28"/><rect class="cls-1" x="65.1" y="179.02" width="16.28" height="16.27"/><rect class="cls-1" x="81.38" y="162.75" width="16.27" height="16.27"/><rect class="cls-1" x="97.65" y="146.47" width="16.28" height="16.28"/><rect class="cls-1" x="113.93" y="130.2" width="16.27" height="16.27"/><rect class="cls-2" x="113.93" y="113.92" width="16.27" height="16.28"/><rect class="cls-2" x="97.65" y="130.2" width="16.28" height="16.27"/><rect class="cls-2" x="81.38" y="146.47" width="16.27" height="16.28"/><rect class="cls-2" x="65.1" y="162.75" width="16.28" height="16.27"/><rect class="cls-2" x="48.83" y="179.02" width="16.27" height="16.27"/><polygon class="cls-2" points="32.55 195.29 16.28 195.29 16.28 211.57 32.55 211.57 48.83 211.57 48.83 195.29 32.55 195.29"/><polygon class="cls-3" points="16.28 16.27 16.28 32.55 16.28 48.82 16.28 65.1 16.28 81.37 16.28 97.65 16.28 113.92 16.28 130.2 16.28 146.47 16.28 162.75 16.28 179.02 16.28 195.29 32.55 195.29 48.83 195.29 48.83 179.02 65.1 179.02 65.1 162.75 81.38 162.75 81.38 146.47 97.65 146.47 97.65 130.2 113.93 130.2 113.93 113.92 130.2 113.92 130.2 97.65 113.93 97.65 113.93 81.37 97.65 81.37 97.65 65.1 81.38 65.1 81.38 48.82 65.1 48.82 65.1 32.55 48.83 32.55 48.83 16.27 32.55 16.27 16.28 16.27"/></g></g></svg>