<svg xmlns="http://www.w3.org/2000/svg" viewBox="0 0 146.48 227.84"><defs><style>.cls-1{fill:#120f26;}.cls-2{fill:#e22b17;}.cls-3{fill:#ffda40;}</style></defs><g id="Layer_2" data-name="Layer 2"><g id="Layer_7" data-name="Layer 7"><polygon class="cls-1" points="16.28 97.65 16.28 113.92 16.28 130.2 0 130.2 0 113.92 0 97.65 16.28 97.65"/><rect class="cls-1" x="16.28" y="81.37" width="16.27" height="16.28"/><rect class="cls-1" x="32.55" y="65.1" width="16.28" height="16.27"/><rect class="cls-1" x="48.83" y="48.82" width="16.27" height="16.28"/><rect class="cls-1" x="65.1" y="32.55" width="16.28" height="16.27"/><rect class="cls-1" x="81.38" y="16.27" width="16.27" height="16.28"/><polygon class="cls-1" points="130.2 211.57 130.2 195.29 130.2 179.02 130.2 162.75 130.2 146.47 130.2 130.2 130.2 113.92 130.2 97.65 130.2 81.37 130.2 65.1 130.2 48.82 130.2 32.55 130.2 16.27 113.93 16.27 97.65 16.27 97.65 0 113.93 0 130.2 0 146.48 0 146.48 16.27 146.48 32.55 146.48 48.82 146.48 65.1 146.48 81.37 146.48 97.65 146.48 113.92 146.48 130.2 146.48 146.47 146.48 162.75 146.48 179.02 146.48 195.29 146.48 211.57 146.48 227.84 130.2 227.84 113.93 227.84 97.65 227.84 97.65 211.57 113.93 211.57 130.2 211.57"/><rect class="cls-1" x="81.38" y="195.29" width="16.27" height="16.28"/><rect class="cls-1" x="65.1" y="179.02" width="16.28" height="16.27"/><rect class="cls-1" x="48.83" y="162.75" width="16.27" height="16.27"/><rect class="cls-1" x="32.55" y="146.47" width="16.28" height="16.28"/><rect class="cls-1" x="16.28" y="130.2" width="16.27" height="16.27"/><rect class="cls-2" x="16.28" y="113.92" width="16.27" height="16.28"/><rect class="cls-2" x="32.55" y="130.2" width="16.28" height="16.27"/><rect class="cls-2" x="48.83" y="146.47" width="16.27" height="16.28"/><rect class="cls-2" x="65.1" y="162.75" width="16.28" height="16.27"/><rect class="cls-2" x="81.38" y="179.02" width="16.27" height="16.27"/><polygon class="cls-2" points="113.93 195.29 130.2 195.29 130.2 211.57 113.93 211.57 97.65 211.57 97.65 195.29 113.93 195.29"/><polygon class="cls-3" points="130.2 16.27 130.2 32.55 130.2 48.82 130.2 65.1 130.2 81.37 130.2 97.65 130.2 113.92 130.2 130.2 130.2 146.47 130.2 162.75 130.2 179.02 130.2 195.29 113.93 195.29 97.65 195.29 97.65 179.02 81.38 179.02 81.38 162.75 65.1 162.75 65.1 146.47 48.83 146.47 48.83 130.2 32.55 130.2 32.55 113.92 16.28 113.92 16.28 97.65 32.55 97.65 32.55 81.37 48.83 81.37 48.83 65.1 65.1 65.1 65.1 48.82 81.38 48.82 81.38 32.55 97.65 32.55 97.65 16.27 113.93 16.27 130.2 16.27"/></g></g></svg>