<svg xmlns="http://www.w3.org/2000/svg" viewBox="0 0 79.65 92.92"><defs><style>.cls-1{fill:#156c87;}.cls-2{fill:#3eb7e9;}.cls-3{fill:#bbe8fd;}.cls-4{fill:#d6effe;}.cls-5{fill:#fff;}</style></defs><g id="Layer_2" data-name="Layer 2"><g id="Layer_7" data-name="Layer 7"><polygon class="cls-1" points="66.37 0 66.37 13.27 66.37 26.54 79.65 26.54 79.65 13.27 79.65 0 66.37 0"/><polygon class="cls-2" points="53.1 13.27 53.1 26.54 53.1 39.82 66.37 39.82 66.37 26.54 66.37 13.27 53.1 13.27"/><polygon class="cls-3" points="39.82 26.54 39.82 39.82 26.55 39.82 26.55 53.09 39.82 53.09 53.1 53.09 53.1 39.82 53.1 26.54 39.82 26.54"/><polygon class="cls-4" points="13.27 53.09 13.27 66.37 13.27 79.64 26.55 79.64 39.82 79.64 39.82 66.37 39.82 53.09 26.55 53.09 13.27 53.09"/><polygon class="cls-5" points="13.27 66.37 0 66.37 0 79.64 0 92.92 13.27 92.92 26.55 92.92 26.55 79.64 13.27 79.64 13.27 66.37"/></g></g></svg>