<svg xmlns="http://www.w3.org/2000/svg" viewBox="0 0 58.82 58.83"><defs><style>.cls-1{fill:#bbe8fd;}.cls-2{fill:#d6effe;}.cls-3{fill:#fff;}</style></defs><g id="Layer_2" data-name="Layer 2"><g id="Layer_7" data-name="Layer 7"><polygon class="cls-1" points="49.02 39.22 39.21 39.22 39.21 49.02 29.41 49.02 19.61 49.02 19.61 58.83 29.41 58.83 39.21 58.83 49.02 58.83 49.02 49.02 58.82 49.02 58.82 39.22 58.82 29.41 49.02 29.41 49.02 39.22"/><polygon class="cls-2" points="49.02 9.81 49.02 0 39.21 0 29.41 0 19.61 0 9.8 0 9.8 9.81 0 9.81 0 19.61 0 29.41 0 39.22 0 49.02 9.8 49.02 9.8 58.83 19.61 58.83 19.61 49.02 19.61 39.22 19.61 29.41 19.61 19.61 29.41 19.61 39.21 19.61 49.02 19.61 49.02 29.41 58.82 29.41 58.82 19.61 58.82 9.81 49.02 9.81"/><polygon class="cls-3" points="39.21 49.02 39.21 39.22 49.02 39.22 49.02 29.41 49.02 19.61 39.21 19.61 29.41 19.61 19.61 19.61 19.61 29.41 19.61 39.22 19.61 49.02 29.41 49.02 39.21 49.02"/></g></g></svg>