<svg xmlns="http://www.w3.org/2000/svg" viewBox="0 0 301.47 277.36"><defs><style>.cls-1{fill:#f4d65b;}.cls-2{fill:#edc92f;}.cls-3{fill:#ffda40;}</style></defs><g id="Layer_2" data-name="Layer 2"><g id="Layer_7" data-name="Layer 7"><polygon class="cls-1" points="289.41 96.48 289.41 84.42 277.35 84.42 277.35 96.48 277.35 108.53 277.35 120.59 277.35 132.65 277.35 144.71 277.35 156.77 277.35 168.83 277.35 180.89 265.29 180.89 265.29 192.95 277.35 192.95 289.41 192.95 289.41 180.89 301.47 180.89 301.47 168.83 301.47 156.77 301.47 144.71 301.47 132.65 301.47 120.59 301.47 108.53 301.47 96.48 289.41 96.48"/><polygon class="cls-2" points="265.29 156.77 253.23 156.77 253.23 168.83 253.23 180.89 253.23 192.95 265.29 192.95 265.29 180.89 265.29 168.83 265.29 156.77"/><polygon class="cls-2" points="229.11 84.42 217.06 84.42 217.06 96.48 217.06 108.53 229.11 108.53 229.11 120.59 241.17 120.59 241.17 108.53 241.17 96.48 229.11 96.48 229.11 84.42"/><rect class="cls-2" x="192.94" y="108.53" width="12.06" height="12.06"/><rect class="cls-2" x="180.88" y="72.36" width="12.06" height="12.06"/><polygon class="cls-2" points="120.59 120.59 120.59 108.53 108.53 108.53 108.53 120.59 108.53 132.65 120.59 132.65 120.59 120.59"/><polygon class="cls-2" points="156.76 156.77 168.82 156.77 168.82 144.71 168.82 132.65 168.82 120.59 156.76 120.59 156.76 132.65 144.7 132.65 144.7 144.71 132.64 144.71 120.59 144.71 120.59 156.77 108.53 156.77 108.53 168.83 120.59 168.83 132.64 168.83 132.64 156.77 144.7 156.77 156.76 156.77"/><rect class="cls-2" x="108.53" y="192.95" width="12.06" height="12.05"/><polygon class="cls-2" points="192.94 229.12 180.88 229.12 180.88 241.18 168.82 241.18 156.76 241.18 156.76 253.24 168.82 253.24 180.88 253.24 192.94 253.24 192.94 241.18 205 241.18 217.06 241.18 217.06 229.12 205 229.12 192.94 229.12"/><rect class="cls-2" x="48.23" y="217.06" width="12.06" height="12.06"/><polygon class="cls-2" points="36.17 192.95 48.23 192.95 60.29 192.95 60.29 180.89 48.23 180.89 48.23 168.83 36.17 168.83 36.17 156.77 24.11 156.77 24.11 168.83 24.11 180.89 36.17 180.89 36.17 192.95"/><polygon class="cls-2" points="205 156.77 192.94 156.77 180.88 156.77 180.88 168.83 192.94 168.83 192.94 180.89 205 180.89 217.06 180.89 217.06 168.83 205 168.83 205 156.77"/><polygon class="cls-2" points="168.82 217.06 168.82 205 180.88 205 192.94 205 192.94 192.95 180.88 192.95 180.88 180.89 168.82 180.89 156.76 180.89 156.76 192.95 156.76 205 144.7 205 144.7 217.06 156.76 217.06 168.82 217.06"/><polygon class="cls-2" points="168.82 24.12 156.76 24.12 144.7 24.12 132.64 24.12 120.59 24.12 108.53 24.12 96.47 24.12 96.47 36.18 96.47 48.24 96.47 60.3 96.47 72.36 84.41 72.36 84.41 84.42 84.41 96.48 72.35 96.48 72.35 108.53 72.35 120.59 84.41 120.59 84.41 132.65 84.41 144.71 96.47 144.71 108.53 144.71 108.53 132.65 96.47 132.65 96.47 120.59 96.47 108.53 96.47 96.48 108.53 96.48 108.53 84.42 108.53 72.36 108.53 60.3 120.59 60.3 120.59 48.24 132.64 48.24 132.64 36.18 144.7 36.18 156.76 36.18 168.82 36.18 180.88 36.18 192.94 36.18 192.94 24.12 180.88 24.12 168.82 24.12"/><path class="cls-3" d="M253.23,193V156.77h12.06v24.12h12.06V84.42H265.29V72.36H241.17V48.24H217.06V36.18H205V24.12H192.94V36.18h-60.3V48.24h-12V60.3H108.53V96.48H96.47v36.17h12.06V108.53h12.06v24.12H108.53v12.06H84.41V120.59H72.35V96.48H84.41V72.36H96.47V24.12H72.35V48.24H48.23V60.3H36.17V72.36H24.11V96.48h-12v36.17h12V108.53H48.23v24.12H36.17v12.06H12.06v36.18h12V156.77H36.17v12.06H48.23V144.71H60.29v12.06H72.35v12.06H84.41v12.06H96.47V193H72.35V180.89H60.29V193H36.17V180.89H24.11V205H36.17v12.06H60.29v12.06H96.47v12.06H72.35v12.06H84.41V265.3h24.12v12.06h60.29V265.3h48.24V253.24h24.11V241.18h12.06V229.12h12.06V205h12.06V193H253.23ZM205,108.53v12.06H192.94V108.53ZM180.88,72.36h12.06V84.42H180.88ZM120.59,205H108.53V193h12.06Zm12-48.23v12.06H108.53V156.77h12.06V144.71H144.7V132.65h12.06V120.59h12.06v36.18H132.64Zm12.06,60.29V205h12.06V180.89h24.12V193h12.06V205H168.82v12.06H144.7Zm72.36,24.12H192.94v12.06H156.76V241.18h24.12V229.12h36.18Zm0-60.29H192.94V168.83H180.88V156.77H205v12.06h12.06Zm24.11-72.36v12.06H229.11V108.53H217.06V84.42h12.05V96.48h12.06Z"/><polygon class="cls-1" points="72.35 229.12 60.29 229.12 48.23 229.12 48.23 217.06 36.17 217.06 36.17 205 24.11 205 24.11 192.95 24.11 180.89 12.06 180.89 12.06 168.83 12.06 156.77 12.06 144.71 12.06 132.65 12.06 120.59 12.06 108.53 12.06 96.48 24.11 96.48 24.11 84.42 24.11 72.36 36.17 72.36 36.17 60.3 48.23 60.3 48.23 48.24 60.29 48.24 72.35 48.24 72.35 36.18 72.35 24.12 60.29 24.12 60.29 36.18 48.23 36.18 36.17 36.18 36.17 48.24 24.11 48.24 24.11 60.3 12.06 60.3 12.06 72.36 12.06 84.42 0 84.42 0 96.48 0 108.53 0 120.59 0 132.65 0 144.71 0 156.77 0 168.83 0 180.89 0 192.95 12.06 192.95 12.06 205 12.06 217.06 24.11 217.06 24.11 229.12 36.17 229.12 36.17 241.18 48.23 241.18 60.29 241.18 60.29 253.24 72.35 253.24 72.35 241.18 72.35 229.12"/><polygon class="cls-2" points="60.29 180.89 72.35 180.89 72.35 192.95 84.41 192.95 96.47 192.95 96.47 180.89 84.41 180.89 84.41 168.83 72.35 168.83 72.35 156.77 60.29 156.77 60.29 144.71 48.23 144.71 48.23 156.77 48.23 168.83 60.29 168.83 60.29 180.89"/><rect class="cls-3" x="48.23" y="168.83" width="12.06" height="12.06"/><polygon class="cls-2" points="84.41 241.18 96.47 241.18 96.47 229.12 84.41 229.12 72.35 229.12 72.35 241.18 84.41 241.18"/><polygon class="cls-1" points="96.47 24.12 108.53 24.12 120.59 24.12 132.64 24.12 144.7 24.12 156.76 24.12 168.82 24.12 180.88 24.12 192.94 24.12 205 24.12 205 36.18 217.06 36.18 217.06 48.24 229.11 48.24 241.17 48.24 241.17 60.3 241.17 72.36 253.23 72.36 265.29 72.36 265.29 84.42 277.35 84.42 277.35 72.36 277.35 60.3 265.29 60.3 265.29 48.24 253.23 48.24 253.23 36.18 241.17 36.18 241.17 24.12 229.11 24.12 229.11 12.06 217.06 12.06 205 12.06 205 0 192.94 0 180.88 0 168.82 0 156.76 0 144.7 0 132.64 0 120.59 0 120.59 12.06 108.53 12.06 96.47 12.06 84.41 12.06 72.35 12.06 72.35 24.12 84.41 24.12 96.47 24.12"/><polygon class="cls-2" points="24.11 144.71 36.17 144.71 36.17 132.65 48.23 132.65 48.23 120.59 48.23 108.53 36.17 108.53 24.11 108.53 24.11 120.59 24.11 132.65 12.06 132.65 12.06 144.71 24.11 144.71"/></g></g></svg>