<svg xmlns="http://www.w3.org/2000/svg" viewBox="0 0 177 301.95"><defs><style>.cls-1{fill:#f4d65b;}.cls-2{fill:#ffda40;}.cls-3{fill:#edc92f;}</style></defs><g id="Layer_2" data-name="Layer 2"><g id="Layer_7" data-name="Layer 7"><polygon class="cls-1" points="156.17 187.42 145.76 187.42 145.76 197.83 135.35 197.83 135.35 208.24 145.76 208.24 156.17 208.24 156.17 197.83 166.58 197.83 166.58 187.42 166.58 177 166.58 166.59 156.17 166.59 156.17 177 156.17 187.42"/><polygon class="cls-1" points="166.58 0 156.17 0 145.76 0 135.35 0 135.35 10.42 124.94 10.42 114.53 10.42 114.53 20.83 104.11 20.83 104.11 31.24 93.7 31.24 93.7 41.65 83.29 41.65 83.29 52.06 72.88 52.06 72.88 62.47 62.47 62.47 62.47 72.89 52.06 72.89 52.06 83.3 52.06 93.71 41.64 93.71 41.64 104.12 31.23 104.12 31.23 114.53 41.64 114.53 41.64 124.95 41.64 135.36 52.06 135.36 52.06 145.77 62.47 145.77 62.47 156.18 72.88 156.18 72.88 166.59 83.29 166.59 83.29 177 93.7 177 93.7 187.42 104.11 187.42 104.11 177 104.11 166.59 93.7 166.59 93.7 156.18 83.29 156.18 83.29 145.77 72.88 145.77 72.88 135.36 62.47 135.36 62.47 124.95 52.06 124.95 52.06 114.53 52.06 104.12 62.47 104.12 62.47 93.71 62.47 83.3 72.88 83.3 72.88 72.89 83.29 72.89 83.29 62.47 93.7 62.47 93.7 52.06 104.11 52.06 104.11 41.65 114.53 41.65 114.53 31.24 124.94 31.24 124.94 20.83 135.35 20.83 145.76 20.83 156.17 20.83 166.58 20.83 166.58 10.42 177 10.42 177 0 166.58 0"/><polygon class="cls-2" points="135.35 166.59 135.35 177 135.35 187.42 124.94 187.42 124.94 197.83 124.94 208.24 135.35 208.24 135.35 197.83 145.76 197.83 145.76 187.42 156.17 187.42 156.17 177 156.17 166.59 145.76 166.59 145.76 156.18 135.35 156.18 124.94 156.18 124.94 166.59 135.35 166.59"/><polygon class="cls-2" points="124.94 20.83 124.94 31.24 124.94 41.65 135.35 41.65 135.35 31.24 145.76 31.24 145.76 20.83 135.35 20.83 124.94 20.83"/><polygon class="cls-1" points="114.53 208.24 114.53 218.65 114.53 229.06 104.11 229.06 104.11 239.47 93.7 239.47 83.29 239.47 83.29 249.89 72.88 249.89 62.47 249.89 62.47 260.3 52.06 260.3 52.06 270.71 62.47 270.71 72.88 270.71 72.88 260.3 83.29 260.3 93.7 260.3 93.7 249.89 104.11 249.89 114.53 249.89 114.53 239.47 124.94 239.47 124.94 229.06 124.94 218.65 135.35 218.65 135.35 208.24 124.94 208.24 114.53 208.24"/><rect class="cls-2" x="114.53" y="145.77" width="10.41" height="10.41"/><polygon class="cls-3" points="114.53 31.24 114.53 41.65 104.11 41.65 104.11 52.06 93.7 52.06 93.7 62.47 83.29 62.47 83.29 72.89 72.88 72.89 72.88 83.3 62.47 83.3 62.47 93.71 62.47 104.12 62.47 114.53 62.47 124.95 72.88 124.95 72.88 135.36 83.29 135.36 83.29 145.77 93.7 145.77 93.7 156.18 104.11 156.18 104.11 166.59 114.53 166.59 114.53 177 114.53 187.42 114.53 197.83 104.11 197.83 104.11 208.24 93.7 208.24 93.7 218.65 83.29 218.65 83.29 229.06 72.88 229.06 72.88 239.47 62.47 239.47 62.47 249.89 72.88 249.89 83.29 249.89 83.29 239.47 93.7 239.47 93.7 229.06 104.11 229.06 104.11 218.65 114.53 218.65 114.53 208.24 124.94 208.24 124.94 197.83 124.94 187.42 135.35 187.42 135.35 177 135.35 166.59 124.94 166.59 124.94 156.18 114.53 156.18 114.53 145.77 104.11 145.77 104.11 135.36 93.7 135.36 93.7 124.95 83.29 124.95 83.29 114.53 83.29 104.12 93.7 104.12 93.7 93.71 93.7 83.3 93.7 72.89 104.11 72.89 104.11 62.47 114.53 62.47 114.53 52.06 124.94 52.06 124.94 41.65 124.94 31.24 114.53 31.24"/><rect class="cls-2" x="104.11" y="218.65" width="10.42" height="10.41"/><rect class="cls-2" x="104.11" y="135.36" width="10.42" height="10.41"/><rect class="cls-2" x="104.11" y="62.47" width="10.42" height="10.42"/><rect class="cls-2" x="93.7" y="229.06" width="10.41" height="10.41"/><polygon class="cls-2" points="104.11 197.83 114.53 197.83 114.53 187.42 114.53 177 114.53 166.59 104.11 166.59 104.11 177 104.11 187.42 93.7 187.42 93.7 197.83 93.7 208.24 104.11 208.24 104.11 197.83"/><rect class="cls-2" x="93.7" y="156.18" width="10.41" height="10.41"/><rect class="cls-2" x="93.7" y="124.95" width="10.41" height="10.41"/><polygon class="cls-2" points="93.7 83.3 93.7 93.71 104.11 93.71 104.11 83.3 104.11 72.89 93.7 72.89 93.7 83.3"/><rect class="cls-2" x="83.29" y="208.24" width="10.41" height="10.41"/><rect class="cls-2" x="83.29" y="145.77" width="10.41" height="10.41"/><polygon class="cls-2" points="83.29 114.53 83.29 124.95 93.7 124.95 93.7 114.53 93.7 104.12 83.29 104.12 83.29 114.53"/><rect class="cls-2" x="72.88" y="218.65" width="10.41" height="10.41"/><rect class="cls-2" x="72.88" y="135.36" width="10.41" height="10.41"/><rect class="cls-2" x="62.47" y="229.06" width="10.41" height="10.41"/><rect class="cls-2" x="62.47" y="124.95" width="10.41" height="10.41"/><polygon class="cls-3" points="62.47 260.3 62.47 249.89 52.06 249.89 41.64 249.89 41.64 260.3 41.64 270.71 52.06 270.71 52.06 260.3 62.47 260.3"/><polygon class="cls-2" points="62.47 249.89 62.47 239.47 52.06 239.47 41.64 239.47 41.64 249.89 52.06 249.89 62.47 249.89"/><polygon class="cls-2" points="62.47 104.12 52.06 104.12 52.06 114.53 52.06 124.95 62.47 124.95 62.47 114.53 62.47 104.12"/><polygon class="cls-1" points="31.23 270.71 31.23 281.12 20.82 281.12 10.41 281.12 10.41 291.53 10.41 301.95 20.82 301.95 20.82 291.53 31.23 291.53 41.64 291.53 41.64 281.12 52.06 281.12 52.06 270.71 41.64 270.71 31.23 270.71"/><polygon class="cls-2" points="31.23 281.12 31.23 270.71 41.64 270.71 41.64 260.3 41.64 249.89 31.23 249.89 31.23 260.3 20.82 260.3 20.82 270.71 10.41 270.71 10.41 281.12 20.82 281.12 31.23 281.12"/><polygon class="cls-2" points="10.41 281.12 0 281.12 0 291.53 0 301.95 10.41 301.95 10.41 291.53 10.41 281.12"/></g></g></svg>