<svg xmlns="http://www.w3.org/2000/svg" viewBox="0 0 652.31 243.58"><defs><style>.cls-1{fill:#120f26;}.cls-2{fill:#e22b17;}.cls-3{fill:#ffda40;}</style></defs><g id="Layer_2" data-name="Layer 2"><g id="Title"><polygon class="cls-1" points="47.8 130 47.8 120 58.88 120 69.97 120 69.97 130 103.22 130 103.22 120 114.31 120 114.31 100 114.31 90 114.31 70 114.31 50 114.31 40 114.31 20 103.22 20 103.22 10 92.14 10 92.14 0 47.8 0 36.72 0 14.55 0 14.55 10 3.46 10 3.46 30 3.46 100 3.46 120 14.55 120 14.55 130 47.8 130"/><path class="cls-2" d="M47.8,90H70v30h33.25V90H92.14V80H81.05V70h22.17V40H92.14V30H14.55v90H47.8ZM70,50V60H58.88V70H47.8V50Z"/><path class="cls-3" d="M47.8,70H70v30h33.25V70H92.14V60H81.05V50h22.17V20H92.14V10H14.55v90H47.8ZM70,30V40H58.88V50H47.8V30Z"/><polygon class="cls-1" points="142.61 130 165.91 130 177.56 130 224.16 130 224.16 120 235.81 120 235.81 100 235.81 80 224.16 80 224.16 70 224.16 60 224.16 50 235.81 50 235.81 30 235.81 10 224.16 10 224.16 0 177.56 0 165.91 0 142.61 0 142.61 10 130.96 10 130.96 30 130.96 100 130.96 120 142.61 120 142.61 130"/><polygon class="cls-2" points="224.16 50 224.16 30 177.56 30 165.91 30 142.61 30 142.61 120 165.91 120 177.56 120 224.16 120 224.16 100 177.56 100 177.56 90 212.51 90 212.51 70 177.56 70 177.56 50 224.16 50"/><polygon class="cls-3" points="224.16 30 224.16 10 177.56 10 165.91 10 142.61 10 142.61 100 165.91 100 177.56 100 224.16 100 224.16 80 177.56 80 177.56 70 212.51 70 212.51 50 177.56 50 177.56 30 224.16 30"/><polygon class="cls-1" points="275.76 60 275.76 100 275.76 120 289.41 120 289.41 130 330.36 130 330.36 120 344.01 120 344.01 100 344.01 60 357.66 60 357.66 50 371.31 50 371.31 30 371.31 10 357.66 10 357.66 0 262.11 0 262.11 10 248.46 10 248.46 30 248.46 50 262.11 50 262.11 60 275.76 60"/><polygon class="cls-2" points="330.36 120 330.36 50 357.66 50 357.66 30 262.11 30 262.11 50 289.41 50 289.41 120 330.36 120"/><polygon class="cls-3" points="330.36 100 330.36 30 357.66 30 357.66 10 262.11 10 262.11 30 289.41 30 289.41 100 330.36 100"/><polygon class="cls-1" points="428.3 130 428.3 120 439.38 120 450.47 120 450.47 130 483.72 130 483.72 120 494.81 120 494.81 100 494.81 90 494.81 70 494.81 50 494.81 40 494.81 20 483.72 20 483.72 10 472.64 10 472.64 0 428.3 0 417.21 0 395.05 0 395.05 10 383.96 10 383.96 30 383.96 100 383.96 120 395.05 120 395.05 130 428.3 130"/><path class="cls-2" d="M428.3,90h22.17v30h33.25V90H472.64V80H461.55V70h22.17V40H472.64V30H395.05v90H428.3Zm22.17-40V60H439.38V70H428.3V50Z"/><path class="cls-3" d="M428.3,70h22.17v30h33.25V70H472.64V60H461.55V50h22.17V20H472.64V10H395.05v90H428.3Zm22.17-40V40H439.38V50H428.3V30Z"/><polygon class="cls-1" points="623.34 130 623.34 120 637.82 120 637.82 110 652.31 110 652.31 90 652.31 40 652.31 20 637.82 20 637.82 10 623.34 10 623.34 0 536.43 0 536.43 10 521.95 10 521.95 20 507.46 20 507.46 40 507.46 90 507.46 110 521.95 110 521.95 120 536.43 120 536.43 130 623.34 130"/><path class="cls-2" d="M623.34,120V110h14.48V40H623.34V30H536.43V40H522v70h14.48v10ZM565.4,100V50h29v50Z"/><path class="cls-3" d="M623.34,100V90h14.48V20H623.34V10H536.43V20H522V90h14.48v10ZM565.4,80V30h29V80Z"/><polygon class="cls-1" points="109.49 162.58 86.03 162.58 86.03 168.73 78.2 168.73 70.39 168.73 70.39 162.58 46.92 162.58 46.92 168.73 39.1 168.73 31.28 168.73 31.28 162.58 7.82 162.58 7.82 168.73 0 168.73 0 181.04 0 187.19 0 199.5 0 211.81 7.82 211.81 7.82 217.96 7.82 224.12 15.64 224.12 15.64 230.27 15.64 236.43 23.46 236.43 23.46 242.58 46.92 242.58 46.92 236.43 54.74 236.43 54.74 230.27 54.74 224.12 62.56 224.12 62.56 230.27 62.56 236.43 70.39 236.43 70.39 242.58 93.85 242.58 93.85 236.43 101.67 236.43 101.67 230.27 101.67 224.12 109.49 224.12 109.49 217.96 109.49 211.81 117.31 211.81 117.31 199.5 117.31 187.19 117.31 181.04 117.31 168.73 109.49 168.73 109.49 162.58"/><polygon class="cls-2" points="86.03 199.5 86.03 211.81 78.2 211.81 78.2 199.5 70.39 199.5 70.39 181.04 46.92 181.04 46.92 199.5 39.1 199.5 39.1 211.81 31.28 211.81 31.28 199.5 31.28 181.04 7.82 181.04 7.82 199.5 7.82 211.81 15.64 211.81 15.64 224.12 23.46 224.12 23.46 236.43 46.92 236.43 46.92 224.12 54.74 224.12 54.74 211.81 62.56 211.81 62.56 224.12 70.39 224.12 70.39 236.43 93.85 236.43 93.85 224.12 101.67 224.12 101.67 211.81 109.49 211.81 109.49 199.5 109.49 181.04 86.03 181.04 86.03 199.5"/><polygon class="cls-3" points="86.03 187.19 86.03 199.5 78.2 199.5 78.2 187.19 70.39 187.19 70.39 168.73 46.92 168.73 46.92 187.19 39.1 187.19 39.1 199.5 31.28 199.5 31.28 187.19 31.28 168.73 7.82 168.73 7.82 187.19 7.82 199.5 15.64 199.5 15.64 211.81 23.46 211.81 23.46 224.12 46.92 224.12 46.92 211.81 54.74 211.81 54.74 199.5 62.56 199.5 62.56 211.81 70.39 211.81 70.39 224.12 93.85 224.12 93.85 211.81 101.67 211.81 101.67 199.5 109.49 199.5 109.49 187.19 109.49 168.73 86.03 168.73 86.03 187.19"/><polygon class="cls-1" points="141.27 242.58 155.89 242.58 163.2 242.58 192.44 242.58 192.44 236.3 199.76 236.3 199.76 223.75 199.76 211.2 192.44 211.2 192.44 204.93 192.44 198.65 192.44 192.38 199.76 192.38 199.76 179.83 199.76 167.28 192.44 167.28 192.44 161 163.2 161 155.89 161 141.27 161 141.27 167.28 133.96 167.28 133.96 179.83 133.96 223.75 133.96 236.3 141.27 236.3 141.27 242.58"/><polygon class="cls-2" points="192.44 192.38 192.44 179.83 163.2 179.83 155.89 179.83 141.27 179.83 141.27 236.3 155.89 236.3 163.2 236.3 192.44 236.3 192.44 223.75 163.2 223.75 163.2 217.48 185.13 217.48 185.13 204.93 163.2 204.93 163.2 192.38 192.44 192.38"/><polygon class="cls-3" points="192.44 179.83 192.44 167.28 163.2 167.28 155.89 167.28 141.27 167.28 141.27 223.75 155.89 223.75 163.2 223.75 192.44 223.75 192.44 211.2 163.2 211.2 163.2 204.93 185.13 204.93 185.13 192.38 163.2 192.38 163.2 179.83 192.44 179.83"/><polygon class="cls-1" points="286.2 242.58 286.2 236.43 294.31 236.43 294.31 224.12 294.31 187.19 294.31 174.89 286.2 174.89 286.2 168.73 278.1 168.73 278.1 162.58 229.49 162.58 229.49 168.73 221.38 168.73 221.38 174.89 213.28 174.89 213.28 187.19 213.28 224.12 213.28 236.43 221.38 236.43 221.38 242.58 245.69 242.58 245.69 236.43 253.79 236.43 261.9 236.43 261.9 242.58 286.2 242.58"/><path class="cls-2" d="M278.1,187.19V181H229.49v6.15h-8.11v49.23h24.31v-12.3H261.9v12.3h24.31V187.19Zm-32.41,24.62V193.35H261.9v18.46Z"/><path class="cls-3" d="M278.1,174.89v-6.16H229.49v6.16h-8.11v49.23h24.31V211.81H261.9v12.31h24.31V174.89ZM245.69,199.5V181H261.9V199.5Z"/><polygon class="cls-1" points="323.97 199.73 323.97 224.21 323.97 236.46 332.33 236.46 332.33 242.58 357.39 242.58 357.39 236.46 365.75 236.46 365.75 224.21 365.75 199.73 374.11 199.73 374.11 193.61 382.46 193.61 382.46 181.36 382.46 169.12 374.11 169.12 374.11 163 315.62 163 315.62 169.12 307.26 169.12 307.26 181.36 307.26 193.61 315.62 193.61 315.62 199.73 323.97 199.73"/><polygon class="cls-2" points="357.39 236.46 357.39 193.61 374.11 193.61 374.11 181.36 315.62 181.36 315.62 193.61 332.33 193.61 332.33 236.46 357.39 236.46"/><polygon class="cls-3" points="357.39 224.21 357.39 181.36 374.11 181.36 374.11 169.12 315.62 169.12 315.62 181.36 332.33 181.36 332.33 224.21 357.39 224.21"/><polygon class="cls-1" points="475.8 242.58 475.8 236.43 484.31 236.43 484.31 224.12 484.31 181.04 484.31 168.73 475.8 168.73 475.8 162.58 450.26 162.58 450.26 168.73 441.74 168.73 433.23 168.73 433.23 162.58 407.69 162.58 407.69 168.73 399.18 168.73 399.18 181.04 399.18 224.12 399.18 236.43 407.69 236.43 407.69 242.58 433.23 242.58 433.23 236.43 441.74 236.43 450.26 236.43 450.26 242.58 475.8 242.58"/><polygon class="cls-2" points="450.26 181.04 450.26 205.66 433.23 205.66 433.23 181.04 407.69 181.04 407.69 236.43 433.23 236.43 433.23 217.96 450.26 217.96 450.26 236.43 475.8 236.43 475.8 181.04 450.26 181.04"/><polygon class="cls-3" points="450.26 168.73 450.26 193.35 433.23 193.35 433.23 168.73 407.69 168.73 407.69 224.12 433.23 224.12 433.23 205.66 450.26 205.66 450.26 224.12 475.8 224.12 475.8 168.73 450.26 168.73"/><polygon class="cls-1" points="509.27 243.58 523.89 243.58 531.2 243.58 560.45 243.58 560.45 237.3 567.76 237.3 567.76 224.75 567.76 212.2 560.45 212.2 560.45 205.93 560.45 199.65 560.45 193.38 567.76 193.38 567.76 180.83 567.76 168.28 560.45 168.28 560.45 162 531.2 162 523.89 162 509.27 162 509.27 168.28 501.96 168.28 501.96 180.83 501.96 224.75 501.96 237.3 509.27 237.3 509.27 243.58"/><polygon class="cls-2" points="560.45 193.38 560.45 180.83 531.2 180.83 523.89 180.83 509.27 180.83 509.27 237.3 523.89 237.3 531.2 237.3 560.45 237.3 560.45 224.75 531.2 224.75 531.2 218.48 553.13 218.48 553.13 205.93 531.2 205.93 531.2 193.38 560.45 193.38"/><polygon class="cls-3" points="560.45 180.83 560.45 168.28 531.2 168.28 523.89 168.28 509.27 168.28 509.27 224.75 523.89 224.75 531.2 224.75 560.45 224.75 560.45 212.2 531.2 212.2 531.2 205.93 553.13 205.93 553.13 193.38 531.2 193.38 531.2 180.83 560.45 180.83"/><polygon class="cls-1" points="609.74 242.58 609.74 236.38 616.61 236.38 623.48 236.38 623.48 242.58 644.09 242.58 644.09 236.38 650.96 236.38 650.96 223.98 650.96 217.78 650.96 205.39 650.96 192.99 650.96 186.79 650.96 174.4 644.09 174.4 644.09 168.2 637.22 168.2 637.22 162 609.74 162 602.87 162 589.13 162 589.13 168.2 582.26 168.2 582.26 180.59 582.26 223.98 582.26 236.38 589.13 236.38 589.13 242.58 609.74 242.58"/><path class="cls-2" d="M609.74,217.79h13.74v18.59h20.61V217.79h-6.87v-6.2h-6.87v-6.2h13.74v-18.6h-6.87V180.6H589.13v55.78h20.61ZM623.48,193v6.2h-6.87v6.2h-6.87V193Z"/><path class="cls-3" d="M609.74,205.39h13.74V224h20.61V205.39h-6.87v-6.2h-6.87V193h13.74V174.4h-6.87v-6.2H589.13V224h20.61Zm13.74-24.79v6.19h-6.87V193h-6.87V180.6Z"/></g></g></svg>