<svg xmlns="http://www.w3.org/2000/svg" viewBox="0 0 1366.17 387.58"><defs><style>.cls-1{fill:#3fb4e8;}</style></defs><g id="Layer_2" data-name="Layer 2"><g id="Shadow_BG" data-name="Shadow BG"><path class="cls-1" d="M1366,310.85V99.38h-4.34V89.44h-9.94V79.51h-9.94V69.57h-9.93V49.69h-9.94V39.75H1312V29.82H1292.1v9.93h-9.94v9.94h-9.94v9.94h-19.88V79.51h-9.93v9.93h-19.88v9.94h-9.94v9.94h-19.87V99.38h-9.94V89.44h-79.5v9.94H1083.4V89.44h-19.88V79.51h-19.87V69.57h-19.88V59.63H1003.9V49.69H994v9.94H984V69l-.94.54H964.15v9.94H944.27v9.93h-9.94v8.17l-3.09,1.77h-46.6V89.44H864.77V79.51H844.89v9.93H825v7.14h-9.93V89.44h-9.94V79.51H795.2V69.57h-9.94V59.63h-9.93V49.69H755.45V39.75h-9.94V29.82H725.64V19.88H715.7V9.94h-9.94V0H666V9.91l-.08,0h-19.8v7.88L641,19.88H616.32v9.8l-.35.14H586.51v9.93H566.63V29.82h-9.94V19.88h-9.94V9.94h-9.93v9.94h-9.94v9.61l-.43.33h-9.51v7.51l-3.08,2.42h-16.8v9.94h-9.93v9.94h-9.94v9.05l-1.13.89H457.31v9.94h-9.94v9.93h-9.93v9.94H417.56v9.94H397.69v9.94H367.87v-9.94H348v9.94H328.12v19.87H308.24v9.94H288.37v-9.94h-9.94v-9.94h-9.94v-9.93h-9.93v-9.94h-9.94V89.44h-9.94V79.51H198.93v9.93H189v9.14h-9.82v.8h-.12v9.94h-9.94v9.94h-9.93v9.93h-9.94v9.94H139.3v7.45h-5.13v-3h-6.6l-2.4-1.92v-5.08h-6.35l-2.65-2.12v-6.88h-8.6l-.4-.32v-6.68H98.82l-.65-.52v-6.48h-8.1l-1.9-1.52v-6.48h-8.1l-.9-.72V97.58h-9v.08l-.43-.35V89.44H59.89l-.09-.08V79.51H20.05v9.93H10.11v9.94H.17v8.76l-.17.09V387.58H1366.17V310.85ZM338.06,130.06v-.87h.9ZM775.33,70.5l-1.27-.93h1.27Zm238.5-.54-.83-.39h.83Zm188.82,49.55-.48-.25h.48Zm19.88-9.32v-.87h.93Zm139.13-.45-.35-.42h.35Z"/></g></g></svg>