<svg xmlns="http://www.w3.org/2000/svg" viewBox="0 0 1365.46 355.93"><defs><style>.cls-1{fill:#43b452;}</style></defs><g id="Layer_2" data-name="Layer 2"><g id="Green_BG" data-name="Green BG"><path class="cls-1" d="M1350.24,109.31V99.37h-69.56v9.94h-29.82v8l-8,2h-51.65v-9.94h-19.88V99.37h-29.81V89.44h-33l-1.74-.74-2.4.74H1062v9.93h-38.2l-1.55-.86V89.44h-16.41l-.19-.1V79.76h-3.27V79.5h-9.94V69.56H972.6V59.62H942.79v9.31l-1.1.63H922.91V79.5H903v9.94H883.16v9.93h-9.94v9.75l-.33.19H843.41V99.37h-9.94V89.44H813.6V79.5H796.31l-2.59-1.84v-8.1H773.85v8.73l-1.58,1.21H754.69V72.76h-9V79.5h-7V77.76H724.16v-8.2H707.85l-3.57-1.82V59.62h-9.94V49.69H684.4V39.75H654.59V29.81h-9.94V19.87h-1v-.11H624.78V9.93h-9.94V0H604.9V9.93H585v9.94h-9.94v9.94H545.27v9.94H525.4v9.94h-9.94v9.93H495.58v9.94h-9.93V79.5H465.77v9.94h-59.2l-.43-.19V79.5h-9.93v9.89l-.06,0H376.33v9.93h-9.94v9.94h-9.94v9.94h-9.93v9.94H326.64v9.94H316.7v-9.94h-9.94v-9.94H286.89v-9.94H267V99.37H227.26v9.94h-9.94v9.94H197.45v6.51H159.1l-1.4-1.16v-5.35h0v-1.49h-8.24l-1.69-1.41v-7h-8.5l-1.44-1.2V89.44h-9.94V79.5h-9.94V69.56H68.26V79.5H48.38v9.94H38.44v9.93H28.5v9.94H18.57v9.94H8.63v9.94H0V355.93H1365.46V109.31ZM68.26,89.9v-.46h.58Zm59.62,10-.61-.5h.61Zm109.32,9.92v-.48h.66Z"/></g></g></svg>