<svg xmlns="http://www.w3.org/2000/svg" viewBox="0 0 492.65 295.61"><defs><style>.cls-1{fill:#3eb7e9;}.cls-2{fill:#d6effe;}.cls-3{fill:#bbe8fd;}.cls-4{fill:#fff;}</style></defs><g id="Layer_2" data-name="Layer 2"><g id="Layer_7" data-name="Layer 7"><polygon class="cls-1" points="478.58 154.85 478.58 168.92 478.58 183 464.51 183 464.51 197.07 464.51 211.14 450.42 211.14 450.42 225.23 436.35 225.23 436.35 239.3 450.42 239.3 464.51 239.3 464.51 225.23 478.58 225.23 478.58 211.14 478.58 197.07 492.65 197.07 492.65 183 492.65 168.92 492.65 154.85 478.58 154.85"/><polygon class="cls-2" points="464.51 168.92 450.42 168.92 436.35 168.92 436.35 154.85 422.27 154.85 422.27 140.76 408.2 140.76 394.13 140.76 380.04 140.76 365.97 140.76 351.89 140.76 337.82 140.76 337.82 126.69 323.75 126.69 323.75 112.62 323.75 98.54 323.75 84.47 309.66 84.47 309.66 98.54 309.66 112.62 295.59 112.62 295.59 98.54 295.59 84.47 295.59 70.38 281.51 70.38 267.44 70.38 253.37 70.38 253.37 56.31 239.28 56.31 225.21 56.31 225.21 70.38 211.13 70.38 197.06 70.38 197.06 84.47 182.99 84.47 182.99 98.54 168.9 98.54 168.9 112.62 154.83 112.62 140.75 112.62 140.75 126.69 154.83 126.69 168.9 126.69 168.9 140.76 154.83 140.76 140.75 140.76 126.68 140.76 112.61 140.76 98.52 140.76 98.52 154.85 84.45 154.85 70.38 154.85 70.38 168.92 56.3 168.92 42.23 168.92 42.23 183 28.14 183 28.14 197.07 28.14 211.14 42.23 211.14 42.23 225.23 56.3 225.23 70.38 225.23 84.45 225.23 98.52 225.23 112.61 225.23 112.61 211.14 126.68 211.14 140.75 211.14 154.83 211.14 168.9 211.14 182.99 211.14 197.06 211.14 197.06 197.07 211.13 197.07 225.21 197.07 239.28 197.07 239.28 183 253.37 183 253.37 168.92 267.44 168.92 281.51 168.92 281.51 183 295.59 183 309.66 183 309.66 197.07 323.75 197.07 337.82 197.07 351.89 197.07 365.97 197.07 380.04 197.07 394.13 197.07 408.2 197.07 422.27 197.07 436.35 197.07 436.35 183 450.42 183 464.51 183 478.58 183 478.58 168.92 478.58 154.85 464.51 154.85 464.51 168.92"/><polygon class="cls-3" points="450.42 225.23 450.42 211.14 464.51 211.14 464.51 197.07 464.51 183 450.42 183 436.35 183 436.35 197.07 422.27 197.07 408.2 197.07 394.13 197.07 380.04 197.07 365.97 197.07 351.89 197.07 337.82 197.07 323.75 197.07 309.66 197.07 309.66 183 295.59 183 281.51 183 281.51 168.92 267.44 168.92 253.37 168.92 253.37 183 239.28 183 239.28 197.07 225.21 197.07 211.13 197.07 197.06 197.07 197.06 211.14 182.99 211.14 168.9 211.14 154.83 211.14 140.75 211.14 126.68 211.14 112.61 211.14 112.61 225.23 98.52 225.23 84.45 225.23 70.38 225.23 56.3 225.23 42.23 225.23 42.23 211.14 28.14 211.14 28.14 197.07 28.14 183 42.23 183 42.23 168.92 56.3 168.92 70.38 168.92 70.38 154.85 84.45 154.85 98.52 154.85 98.52 140.76 112.61 140.76 126.68 140.76 140.75 140.76 154.83 140.76 168.9 140.76 168.9 126.69 154.83 126.69 140.75 126.69 126.68 126.69 112.61 126.69 98.52 126.69 84.45 126.69 70.38 126.69 70.38 140.76 56.3 140.76 56.3 154.85 42.23 154.85 28.14 154.85 28.14 168.92 14.07 168.92 14.07 183 14.07 197.07 0 197.07 0 211.14 0 225.23 14.07 225.23 14.07 239.3 14.07 253.38 28.14 253.38 42.23 253.38 42.23 267.45 42.23 281.52 56.3 281.52 70.38 281.52 84.45 281.52 98.52 281.52 112.61 281.52 126.68 281.52 140.75 281.52 154.83 281.52 168.9 281.52 182.99 281.52 182.99 267.45 197.06 267.45 211.13 267.45 211.13 253.38 225.21 253.38 225.21 239.3 225.21 225.23 239.28 225.23 253.37 225.23 267.44 225.23 281.51 225.23 295.59 225.23 309.66 225.23 309.66 239.3 323.75 239.3 337.82 239.3 351.89 239.3 365.97 239.3 380.04 239.3 394.13 239.3 408.2 239.3 422.27 239.3 436.35 239.3 436.35 225.23 450.42 225.23"/><polygon class="cls-1" points="408.2 239.3 394.13 239.3 380.04 239.3 365.97 239.3 351.89 239.3 337.82 239.3 323.75 239.3 309.66 239.3 309.66 225.23 295.59 225.23 281.51 225.23 267.44 225.23 253.37 225.23 239.28 225.23 225.21 225.23 225.21 239.3 225.21 253.38 211.13 253.38 211.13 267.45 225.21 267.45 239.28 267.45 239.28 253.38 239.28 239.3 253.37 239.3 267.44 239.3 281.51 239.3 295.59 239.3 295.59 253.38 309.66 253.38 323.75 253.38 337.82 253.38 351.89 253.38 365.97 253.38 380.04 253.38 394.13 253.38 408.2 253.38 422.27 253.38 436.35 253.38 436.35 239.3 422.27 239.3 408.2 239.3"/><polygon class="cls-4" points="380.04 112.62 394.13 112.62 408.2 112.62 422.27 112.62 436.35 112.62 436.35 126.69 450.42 126.69 464.51 126.69 464.51 140.76 464.51 154.85 478.58 154.85 478.58 140.76 478.58 126.69 478.58 112.62 464.51 112.62 464.51 98.54 450.42 98.54 436.35 98.54 422.27 98.54 408.2 98.54 394.13 98.54 380.04 98.54 365.97 98.54 351.89 98.54 351.89 112.62 365.97 112.62 380.04 112.62"/><polygon class="cls-3" points="351.89 140.76 365.97 140.76 380.04 140.76 394.13 140.76 408.2 140.76 422.27 140.76 422.27 154.85 436.35 154.85 436.35 168.92 450.42 168.92 464.51 168.92 464.51 154.85 464.51 140.76 464.51 126.69 450.42 126.69 436.35 126.69 436.35 112.62 422.27 112.62 408.2 112.62 394.13 112.62 380.04 112.62 365.97 112.62 351.89 112.62 351.89 126.69 351.89 140.76"/><polygon class="cls-3" points="295.59 98.54 295.59 112.62 309.66 112.62 309.66 98.54 309.66 84.47 309.66 70.38 295.59 70.38 295.59 84.47 295.59 98.54"/><polygon class="cls-3" points="225.21 56.31 239.28 56.31 253.37 56.31 253.37 70.38 267.44 70.38 281.51 70.38 295.59 70.38 295.59 56.31 281.51 56.31 267.44 56.31 267.44 42.24 253.37 42.24 239.28 42.24 225.21 42.24 211.13 42.24 211.13 56.31 211.13 70.38 225.21 70.38 225.21 56.31"/><polygon class="cls-1" points="182.99 267.45 182.99 281.52 197.06 281.52 211.13 281.52 211.13 267.45 197.06 267.45 182.99 267.45"/><polygon class="cls-1" points="154.83 281.52 140.75 281.52 126.68 281.52 112.61 281.52 98.52 281.52 84.45 281.52 70.38 281.52 56.3 281.52 42.23 281.52 42.23 295.61 56.3 295.61 70.38 295.61 84.45 295.61 98.52 295.61 112.61 295.61 126.68 295.61 140.75 295.61 154.83 295.61 168.9 295.61 182.99 295.61 182.99 281.52 168.9 281.52 154.83 281.52"/><polygon class="cls-1" points="42.23 253.38 28.14 253.38 14.07 253.38 14.07 267.45 28.14 267.45 28.14 281.52 42.23 281.52 42.23 267.45 42.23 253.38"/><polygon class="cls-4" points="14.07 183 14.07 168.92 28.14 168.92 28.14 154.85 42.23 154.85 56.3 154.85 56.3 140.76 70.38 140.76 70.38 126.69 84.45 126.69 98.52 126.69 112.61 126.69 126.68 126.69 140.75 126.69 140.75 112.62 154.83 112.62 168.9 112.62 168.9 98.54 182.99 98.54 182.99 84.47 197.06 84.47 197.06 70.38 211.13 70.38 211.13 56.31 211.13 42.24 225.21 42.24 239.28 42.24 253.37 42.24 267.44 42.24 267.44 56.31 281.51 56.31 295.59 56.31 295.59 70.38 309.66 70.38 309.66 84.47 323.75 84.47 323.75 98.54 323.75 112.62 323.75 126.69 337.82 126.69 337.82 140.76 351.89 140.76 351.89 126.69 351.89 112.62 337.82 112.62 337.82 98.54 337.82 84.47 337.82 70.38 323.75 70.38 323.75 56.31 323.75 42.24 309.66 42.24 309.66 28.16 295.59 28.16 295.59 14.09 281.51 14.09 281.51 0 267.44 0 253.37 0 239.28 0 225.21 0 211.13 0 197.06 0 197.06 14.09 182.99 14.09 168.9 14.09 168.9 28.16 154.83 28.16 154.83 42.24 140.75 42.24 140.75 56.31 140.75 70.38 140.75 84.47 126.68 84.47 126.68 98.54 126.68 112.62 112.61 112.62 98.52 112.62 98.52 98.54 84.45 98.54 70.38 98.54 56.3 98.54 56.3 112.62 42.23 112.62 28.14 112.62 28.14 126.69 14.07 126.69 14.07 140.76 14.07 154.85 0 154.85 0 168.92 0 183 0 197.07 14.07 197.07 14.07 183"/></g></g></svg>