<svg xmlns="http://www.w3.org/2000/svg" viewBox="0 0 492.65 295.61"><defs><style>.cls-1{fill:#3eb7e9;}.cls-2{fill:#d6effe;}.cls-3{fill:#bbe8fd;}.cls-4{fill:#fff;}</style></defs><g id="Layer_2" data-name="Layer 2"><g id="Layer_7" data-name="Layer 7"><polygon class="cls-1" points="14.07 154.85 14.07 168.92 14.07 183 28.14 183 28.14 197.07 28.14 211.14 42.23 211.14 42.23 225.23 56.3 225.23 56.3 239.3 42.23 239.3 28.14 239.3 28.14 225.23 14.07 225.23 14.07 211.14 14.07 197.07 0 197.07 0 183 0 168.92 0 154.85 14.07 154.85"/><polygon class="cls-2" points="28.14 168.92 42.23 168.92 56.3 168.92 56.3 154.85 70.38 154.85 70.38 140.76 84.45 140.76 98.52 140.76 112.61 140.76 126.68 140.76 140.76 140.76 154.83 140.76 154.83 126.69 168.9 126.69 168.9 112.62 168.9 98.54 168.9 84.47 182.99 84.47 182.99 98.54 182.99 112.62 197.06 112.62 197.06 98.54 197.06 84.47 197.06 70.38 211.14 70.38 225.21 70.38 239.28 70.38 239.28 56.31 253.37 56.31 267.44 56.31 267.44 70.38 281.52 70.38 295.59 70.38 295.59 84.47 309.66 84.47 309.66 98.54 323.75 98.54 323.75 112.62 337.82 112.62 351.9 112.62 351.9 126.69 337.82 126.69 323.75 126.69 323.75 140.76 337.82 140.76 351.9 140.76 365.97 140.76 380.04 140.76 394.13 140.76 394.13 154.85 408.2 154.85 422.27 154.85 422.27 168.92 436.35 168.92 450.42 168.92 450.42 183 464.51 183 464.51 197.07 464.51 211.14 450.42 211.14 450.42 225.23 436.35 225.23 422.27 225.23 408.2 225.23 394.13 225.23 380.04 225.23 380.04 211.14 365.97 211.14 351.9 211.14 337.82 211.14 323.75 211.14 309.66 211.14 295.59 211.14 295.59 197.07 281.52 197.07 267.44 197.07 253.37 197.07 253.37 183 239.28 183 239.28 168.92 225.21 168.92 211.14 168.92 211.14 183 197.06 183 182.99 183 182.99 197.07 168.9 197.07 154.83 197.07 140.76 197.07 126.68 197.07 112.61 197.07 98.52 197.07 84.45 197.07 70.38 197.07 56.3 197.07 56.3 183 42.23 183 28.14 183 14.07 183 14.07 168.92 14.07 154.85 28.14 154.85 28.14 168.92"/><polygon class="cls-3" points="42.23 225.23 42.23 211.14 28.14 211.14 28.14 197.07 28.14 183 42.23 183 56.3 183 56.3 197.07 70.38 197.07 84.45 197.07 98.52 197.07 112.61 197.07 126.68 197.07 140.76 197.07 154.83 197.07 168.9 197.07 182.99 197.07 182.99 183 197.06 183 211.14 183 211.14 168.92 225.21 168.92 239.28 168.92 239.28 183 253.37 183 253.37 197.07 267.44 197.07 281.52 197.07 295.59 197.07 295.59 211.14 309.66 211.14 323.75 211.14 337.82 211.14 351.9 211.14 365.97 211.14 380.04 211.14 380.04 225.23 394.13 225.23 408.2 225.23 422.27 225.23 436.35 225.23 450.42 225.23 450.42 211.14 464.51 211.14 464.51 197.07 464.51 183 450.42 183 450.42 168.92 436.35 168.92 422.27 168.92 422.27 154.85 408.2 154.85 394.13 154.85 394.13 140.76 380.04 140.76 365.97 140.76 351.9 140.76 337.82 140.76 323.75 140.76 323.75 126.69 337.82 126.69 351.9 126.69 365.97 126.69 380.04 126.69 394.13 126.69 408.2 126.69 422.27 126.69 422.27 140.76 436.35 140.76 436.35 154.85 450.42 154.85 464.51 154.85 464.51 168.92 478.58 168.92 478.58 183 478.58 197.07 492.65 197.07 492.65 211.14 492.65 225.23 478.58 225.23 478.58 239.3 478.58 253.38 464.51 253.38 450.42 253.38 450.42 267.45 450.42 281.52 436.35 281.52 422.27 281.52 408.2 281.52 394.13 281.52 380.04 281.52 365.97 281.52 351.9 281.52 337.82 281.52 323.75 281.52 309.66 281.52 309.66 267.45 295.59 267.45 281.52 267.45 281.52 253.38 267.44 253.38 267.44 239.3 267.44 225.23 253.37 225.23 239.28 225.23 225.21 225.23 211.14 225.23 197.06 225.23 182.99 225.23 182.99 239.3 168.9 239.3 154.83 239.3 140.76 239.3 126.68 239.3 112.61 239.3 98.52 239.3 84.45 239.3 70.38 239.3 56.3 239.3 56.3 225.23 42.23 225.23"/><polygon class="cls-1" points="84.45 239.3 98.52 239.3 112.61 239.3 126.68 239.3 140.76 239.3 154.83 239.3 168.9 239.3 182.99 239.3 182.99 225.23 197.06 225.23 211.14 225.23 225.21 225.23 239.28 225.23 253.37 225.23 267.44 225.23 267.44 239.3 267.44 253.38 281.52 253.38 281.52 267.45 267.44 267.45 253.37 267.45 253.37 253.38 253.37 239.3 239.28 239.3 225.21 239.3 211.14 239.3 197.06 239.3 197.06 253.38 182.99 253.38 168.9 253.38 154.83 253.38 140.76 253.38 126.68 253.38 112.61 253.38 98.52 253.38 84.45 253.38 70.38 253.38 56.3 253.38 56.3 239.3 70.38 239.3 84.45 239.3"/><polygon class="cls-4" points="112.61 112.62 98.52 112.62 84.45 112.62 70.38 112.62 56.3 112.62 56.3 126.69 42.23 126.69 28.14 126.69 28.14 140.76 28.14 154.85 14.07 154.85 14.07 140.76 14.07 126.69 14.07 112.62 28.14 112.62 28.14 98.54 42.23 98.54 56.3 98.54 70.38 98.54 84.45 98.54 98.52 98.54 112.61 98.54 126.68 98.54 140.76 98.54 140.76 112.62 126.68 112.62 112.61 112.62"/><polygon class="cls-3" points="140.76 140.76 126.68 140.76 112.61 140.76 98.52 140.76 84.45 140.76 70.38 140.76 70.38 154.85 56.3 154.85 56.3 168.92 42.23 168.92 28.14 168.92 28.14 154.85 28.14 140.76 28.14 126.69 42.23 126.69 56.3 126.69 56.3 112.62 70.38 112.62 84.45 112.62 98.52 112.62 112.61 112.62 126.68 112.62 140.76 112.62 140.76 126.69 140.76 140.76"/><polygon class="cls-3" points="197.06 98.54 197.06 112.62 182.99 112.62 182.99 98.54 182.99 84.47 182.99 70.38 197.06 70.38 197.06 84.47 197.06 98.54"/><polygon class="cls-3" points="267.44 56.31 253.37 56.31 239.28 56.31 239.28 70.38 225.21 70.38 211.14 70.38 197.06 70.38 197.06 56.31 211.14 56.31 225.21 56.31 225.21 42.24 239.28 42.24 253.37 42.24 267.44 42.24 281.52 42.24 281.52 56.31 281.52 70.38 267.44 70.38 267.44 56.31"/><polygon class="cls-1" points="309.66 267.45 309.66 281.52 295.59 281.52 281.52 281.52 281.52 267.45 295.59 267.45 309.66 267.45"/><polygon class="cls-1" points="337.82 281.52 351.9 281.52 365.97 281.52 380.04 281.52 394.13 281.52 408.2 281.52 422.27 281.52 436.35 281.52 450.42 281.52 450.42 295.61 436.35 295.61 422.27 295.61 408.2 295.61 394.13 295.61 380.04 295.61 365.97 295.61 351.9 295.61 337.82 295.61 323.75 295.61 309.66 295.61 309.66 281.52 323.75 281.52 337.82 281.52"/><polygon class="cls-1" points="450.42 253.38 464.51 253.38 478.58 253.38 478.58 267.45 464.51 267.45 464.51 281.52 450.42 281.52 450.42 267.45 450.42 253.38"/><polygon class="cls-4" points="478.58 183 478.58 168.92 464.51 168.92 464.51 154.85 450.42 154.85 436.35 154.85 436.35 140.76 422.27 140.76 422.27 126.69 408.2 126.69 394.13 126.69 380.04 126.69 365.97 126.69 351.9 126.69 351.9 112.62 337.82 112.62 323.75 112.62 323.75 98.54 309.66 98.54 309.66 84.47 295.59 84.47 295.59 70.38 281.52 70.38 281.52 56.31 281.52 42.24 267.44 42.24 253.37 42.24 239.28 42.24 225.21 42.24 225.21 56.31 211.14 56.31 197.06 56.31 197.06 70.38 182.99 70.38 182.99 84.47 168.9 84.47 168.9 98.54 168.9 112.62 168.9 126.69 154.83 126.69 154.83 140.76 140.76 140.76 140.76 126.69 140.76 112.62 154.83 112.62 154.83 98.54 154.83 84.47 154.83 70.38 168.9 70.38 168.9 56.31 168.9 42.24 182.99 42.24 182.99 28.16 197.06 28.16 197.06 14.09 211.14 14.09 211.14 0 225.21 0 239.28 0 253.37 0 267.44 0 281.52 0 295.59 0 295.59 14.09 309.66 14.09 323.75 14.09 323.75 28.16 337.82 28.16 337.82 42.24 351.9 42.24 351.9 56.31 351.9 70.38 351.9 84.47 365.97 84.47 365.97 98.54 365.97 112.62 380.04 112.62 394.13 112.62 394.13 98.54 408.2 98.54 422.27 98.54 436.35 98.54 436.35 112.62 450.42 112.62 464.51 112.62 464.51 126.69 478.58 126.69 478.58 140.76 478.58 154.85 492.65 154.85 492.65 168.92 492.65 183 492.65 197.07 478.58 197.07 478.58 183"/></g></g></svg>